<svg width="234" height="103" viewBox="0 0 234 103" fill="none" xmlns="http://www.w3.org/2000/svg">
<path d="M198.689 25.0886L233.886 34.7747L216.5 93L181 93L198.689 25.0886Z" fill="#DA4E5B"/>
<path d="M50.5 68H73V89H50.5V68Z" fill="#F291A4"/>
<path d="M16 57H51V83H16V57Z" fill="#DA4E5B"/>
<rect x="171.714" width="31.064" height="76.1303" transform="rotate(15.3867 171.714 0)" fill="#F291A4"/>
<path d="M172 0V81.152V93C172 93 118.407 93 84.0679 93C65.4915 93 60.9725 93 36.5 93C30.9582 93 7.21121 93 7.21121 93H0L7.9328 57H11.9212H17.4491L17.9038 81.46C20.9669 76.1693 23.4015 69.9307 26.1243 63.36C28.9321 56.7893 31.3996 49.92 33.5267 42.752C35.6539 35.4987 37.3982 28.2453 38.7595 20.992C40.1209 13.7387 40.9718 6.74133 41.3121 0H172ZM53.8953 10.368C53.555 15.3173 52.7041 20.9067 51.3428 27.136C50.0665 33.3653 48.4073 39.7653 46.3652 46.336C44.4082 52.8213 42.196 59.0933 39.7285 65.152C37.3461 71.2107 34.7935 76.544 32.0708 81.152H72.0707V10.368H53.8953Z" fill="black"/>
<path d="M161 2H171.663V51.9608C171.663 54.085 171.621 56.4216 171.536 58.9706C171.536 61.4346 171.494 63.8987 171.409 66.3627C171.325 68.8268 171.198 71.0359 171.028 72.9902C170.944 74.8595 170.859 76.3039 170.775 77.3235H176.372L199.63 2H221V93H201.661V43.549C201.661 41.2549 201.703 38.7909 201.788 36.1569C201.873 33.4379 201.957 30.8464 202.042 28.3824C202.211 25.8333 202.338 23.5817 202.423 21.6275C202.507 19.6732 202.592 18.2288 202.677 17.2941H207.195L183.81 93H161V2Z" fill="black"/>
<path d="M94 94L94 9H158V94H147.373V20.131H133.646V94H94Z" fill="white"/>
</svg>
