<svg width="293" height="108" viewBox="0 0 293 108" fill="none" xmlns="http://www.w3.org/2000/svg">
<path d="M259.007 29L260.678 92.9755C268.779 93.3578 276.712 89.2108 282.735 84.1656C288.758 79.1203 292.379 72.0225 292.802 64.5V3C288.536 3.36027 284.316 4.10471 280.205 5.22287C275.429 6.40139 268.529 10.4806 265.864 13C260.495 18.0746 258.047 20.8852 259.007 29Z" fill="#39593B"/>
<path d="M40.6369 45.5L0.0196456 82.8566C4.96178 88.5352 14.4679 93 34.3025 93C47.8025 93 34.8012 90.1533 40.6369 85.0591L79.8623 39.5034C76.8438 36.9138 81.1526 37.0349 77.6737 35.0904C73.7222 32.7462 69.4259 32.4883 64.0549 32.9007C54.6274 33.6245 47.3025 39.5034 40.6369 45.5Z" fill="#39593B"/>
<path d="M258.802 34.5L260.965 93.5C267.48 93.8499 273.86 90.9188 278.705 86.3004C283.549 81.6819 286.461 75.22 286.802 68.3338V12C283.37 12.3298 279.977 13.0113 276.67 14.0349C272.829 15.1137 266.537 20.2465 266.537 20.2465C266.537 20.2465 258.03 27.0716 258.802 34.5Z" fill="#F291A4"/>
<path d="M46.8334 48.4626L10.3025 84C14.6466 88.8684 20.5292 92.7787 27.2199 92.9598C33.9106 93.141 40.5471 90.6522 45.672 86.0401L80.8489 45.3901C78.196 43.1882 75.3208 41.2613 77.048 40.5804C73.5754 38.6162 69.5884 37.6463 65.4999 37.7712C58.2553 38.8433 53.3025 42 46.8334 48.4626Z" fill="#F291A4"/>
<path d="M255.247 46.1571L260.084 93.5C266.599 93.8154 272.987 86.962 272.987 86.962C272.987 86.962 280.743 76.9761 281.084 70.77C281.425 64.5638 281.084 20 281.084 20C277.652 20.2972 274.673 20.3104 270.952 21.8339C265.928 23.8905 261.377 29.3069 258.584 32C254.238 37.3126 254.474 39.4624 255.247 46.1571Z" fill="#DA4E5B"/>
<path d="M51.0178 51.8504L18.2644 85.2965C22.6988 90.0804 23.2537 92.6327 29.6271 93.0483C36.0005 93.4639 47.0415 93.244 51.6271 89.0483L83.127 48.5483C80.4671 46.3596 82.2651 47.1155 79.2568 45.4607C75.8323 43.4679 71.9807 42.4013 68.1007 42.3711C61.2788 43.1262 55.1502 46.5269 51.0178 51.8504Z" fill="#DA4E5B"/>
<path d="M211.301 0V81.152V93H123.113H60.265H46.033H38.8008L46.7566 57H50.7566H56.3006L56.7566 81.46C59.8286 76.1693 62.2703 69.9307 65.001 63.36C67.817 56.7893 70.2917 49.92 72.425 42.752C74.5583 35.4987 76.3077 28.2453 77.673 20.992C79.0383 13.7387 79.8917 6.74133 80.233 0H211.301ZM92.8528 10.368C92.5114 15.3173 91.6581 20.9067 90.2928 27.136C89.0128 33.3653 87.3488 39.7653 85.3008 46.336C83.3381 52.8213 81.1194 59.0933 78.6448 65.152C76.2555 71.2107 73.6954 76.544 70.9648 81.152H111.081V10.368H92.8528Z" fill="black"/>
<path d="M199.801 2H210.553V52.176C210.553 54.3093 210.51 56.656 210.425 59.216C210.425 61.6907 210.382 64.1653 210.297 66.64C210.211 69.1147 210.083 71.3333 209.913 73.296C209.827 75.1733 209.742 76.624 209.657 77.648H215.301L238.753 2H260.301V93.392H240.801V43.728C240.801 41.424 240.843 38.9493 240.929 36.304C241.014 33.5733 241.099 30.9707 241.185 28.496C241.355 25.936 241.483 23.6747 241.569 21.712C241.654 19.7493 241.739 18.2987 241.825 17.36H246.381L222.801 93.392H199.801V2Z" fill="black"/>
<path d="M132.802 93L132.802 10H196.802V93H186.176H172.448H132.802Z" fill="#F291A4"/>
<rect x="150.802" y="19" width="30" height="74" fill="black"/>
</svg>
