<svg width="330" height="140" viewBox="0 0 330 140" fill="none" xmlns="http://www.w3.org/2000/svg">
<path d="M0 43.0883C0 19.3401 19.2518 0.0883789 43 0.0883789H325C327.761 0.0883789 330 2.32696 330 5.08838V140H0V43.0883Z" fill="#D9D9D9"/>
<path d="M129.29 140V29.8382C129.263 23.7731 130.866 17.8123 133.931 12.5789C136.996 7.34554 141.409 3.03171 146.711 0.0883789H101.79V109.379H117.717V140H129.29Z" fill="#1D1D1B"/>
<path d="M22.2737 139.999H86.9798C87.7065 137.82 87.982 135.515 87.7895 133.225C87.5969 130.935 86.9404 128.708 85.8599 126.68C78.7671 116.1 53.0091 114.233 22.2737 126.68V139.999Z" fill="#1D1D1B"/>
<path d="M38.2045 49.008V109.379C46.206 109.786 54.0419 106.999 59.9912 101.631C65.9406 96.2634 69.5171 88.753 69.9354 80.7494V15.2749C65.7208 15.6582 61.5534 16.4503 57.4919 17.6399C52.7749 18.8938 48.4787 21.3864 45.0484 24.8595C39.7115 31.7108 37.2561 40.3742 38.2045 49.008Z" fill="#DA4E5B"/>
<path d="M192.872 15.7725H177.318C172.972 15.8378 168.826 17.6109 165.776 20.7086C162.726 23.8062 161.017 27.9799 161.017 32.3278V140H192.872V15.7725Z" fill="#39593B"/>
<path d="M240.531 0.0883789H222.095V125.121C222.105 128.057 221.394 130.951 220.025 133.546C218.657 136.141 216.672 138.357 214.248 140H240.531V0.0883789Z" fill="#1D1D1B"/>
<path d="M330 0.0883789H311.664V125.121C311.666 128.042 310.969 130.921 309.631 133.511C308.294 136.102 306.356 138.328 303.982 140H330V0.0883789Z" fill="#8B6138"/>
<path d="M6.3462 109.379C10.7014 107.138 14.1856 101.91 15.4299 88.3421C15.4889 75.4452 14.3643 62.5701 12.0702 49.8789C11.0747 32.8257 10.577 24.2368 16.0521 17.0172C22.8 9.92656 31.4357 4.91617 40.939 2.57791C44.0499 1.70658 47.4097 0.835237 51.0183 0.0883789H18.6652C13.7149 0.0883789 8.96735 2.05553 5.46695 5.55711C1.96654 9.05868 0 13.8079 0 18.7598V110.872C2.20424 110.888 4.38026 110.376 6.3462 109.379Z" fill="#1D1D1B"/>
<path d="M262.566 0.0883789V68.9822L288.053 29.2073V0.0883789H262.566Z" fill="#1D1D1B"/>
<path d="M288.053 61.814L262.566 100.917V140H288.053V61.814Z" fill="#1D1D1B"/>
</svg>
