<svg width="202" height="202" viewBox="0 0 202 202" fill="none" xmlns="http://www.w3.org/2000/svg">
<path d="M84.0156 14.9531C91.476 1.72647 110.524 1.72648 117.984 14.9531L141.452 56.5605L141.634 56.8701C142.566 58.3991 143.876 59.666 145.439 60.5479L187.047 84.0156L187.657 84.373C200.271 92.0677 200.067 110.64 187.047 117.984L145.439 141.452C143.772 142.393 142.393 143.772 141.452 145.439L117.984 187.047C110.524 200.274 91.476 200.274 84.0156 187.047L60.5479 145.439C59.666 143.876 58.3991 142.566 56.8701 141.634L56.5605 141.452L14.9531 117.984C1.72647 110.524 1.72648 91.476 14.9531 84.0156L56.5605 60.5479C58.2283 59.6072 59.6072 58.2283 60.5479 56.5605L84.0156 14.9531Z" fill="#495B73" stroke="#27313E" stroke-width="9"/>
</svg>
