<svg width="176" height="174" viewBox="0 0 176 174" fill="none" xmlns="http://www.w3.org/2000/svg">
<path d="M67.3076 20.7773C73.1989 -0.106239 102.801 -0.106259 108.692 20.7773L109.522 23.7197C111.562 30.9509 119.475 34.7614 126.4 31.8477L129.219 30.6621C149.219 22.2474 167.677 45.3919 155.022 63.0186L153.239 65.502C148.858 71.6053 150.811 80.1677 157.407 83.7656L160.092 85.2295C178.992 95.5389 172.655 124.03 151.388 125.546L150.883 125.577L147.829 125.731C140.325 126.111 134.85 132.978 136.149 140.378L136.678 143.39L136.761 143.889C140.016 164.96 113.648 177.478 99.3916 161.346L97.3662 159.055C92.3908 153.425 83.6092 153.425 78.6338 159.055L76.6084 161.346C62.2395 177.605 35.5692 164.761 39.3223 143.39L39.8506 140.378C41.1502 132.978 35.6747 126.111 28.1709 125.731L25.1172 125.577C3.44634 124.481 -3.14086 95.6201 15.9082 85.2295L18.5928 83.7656C25.1886 80.1677 27.1424 71.6053 22.7607 65.502L20.9775 63.0186C8.32323 45.3919 26.7807 22.2474 46.7812 30.6621L49.5996 31.8477C56.525 34.7613 64.4376 30.9509 66.4775 23.7197L67.3076 20.7773Z" fill="#E74C3C" stroke="#A93226" stroke-width="9"/>
</svg>
