<svg width="182" height="182" viewBox="0 0 182 182" fill="none" xmlns="http://www.w3.org/2000/svg">
<path d="M83.9648 8.74121C87.3247 3.76881 94.6753 3.76881 98.0352 8.74121L98.1943 8.98535L107.727 24.1377L123.208 15.1514L123.463 15.0088C128.749 12.1672 135.258 15.5832 135.922 21.5479L135.949 21.8379L137.348 39.6826L155.232 38.9209L155.524 38.9141C161.525 38.8547 165.701 44.9036 163.518 50.4932L163.406 50.7637L156.351 67.2148L172.542 74.8516L172.804 74.9805C178.231 77.7606 179.058 85.2498 174.276 89.1357L160.384 100.425L171.171 114.71L171.343 114.946C174.856 119.93 172.109 126.946 166.068 128.164L148.521 131.704L151.434 149.366C152.452 155.542 146.672 160.664 140.663 158.908L123.48 153.887L117.853 170.88C115.915 176.729 108.619 178.612 104.095 174.523L103.881 174.324L91 161.894L78.1191 174.324C73.6148 178.671 66.1158 176.822 64.1475 170.88L58.5186 153.887L41.3369 158.908C35.3284 160.664 29.5479 155.542 30.5664 149.366L33.4785 131.704L15.9316 128.164C9.79555 126.926 7.05697 119.705 10.8291 114.71L21.6152 100.425L7.72363 89.1357C2.86584 85.1882 3.79663 77.5219 9.45801 74.8516L25.6484 67.2148L18.5938 50.7637C16.1653 45.1006 20.378 38.8537 26.4756 38.9141L26.7676 38.9209L44.6514 39.6826L46.0508 21.8379L46.0781 21.5479C46.7421 15.5832 53.2511 12.1672 58.5371 15.0088L58.792 15.1514L74.2725 24.1377L83.8057 8.98535L83.9648 8.74121Z" fill="#328E5A" stroke="#2B4C2D" stroke-width="9"/>
</svg>
