<svg width="190" height="191" viewBox="0 0 190 191" fill="none" xmlns="http://www.w3.org/2000/svg">
<path d="M86.5361 12.9414C87.4822 2.64507 102.518 2.64494 103.464 12.9414L105.38 33.793L113.964 14.6934C118.136 5.40944 131.982 9.99491 130.078 19.7227L129.975 20.1895L125.016 40.5352L139.336 25.2559L139.671 24.9141C146.773 17.9998 158.186 27.083 152.695 35.6533L141.399 53.2852L159.904 43.4854L160.332 43.2705C169.153 39.104 176.89 50.9477 169.531 57.3516L169.164 57.6572L152.754 70.666L173.439 67.4053C183.653 65.7948 187.344 80.3705 177.596 83.8154L157.851 90.791L178.475 94.4238C188.498 96.1891 187.452 110.737 177.555 111.279L177.076 111.294L156.135 111.481L174.463 121.613C183.512 126.616 177.472 140.386 167.663 137.116L147.797 130.494L161.841 146.027L162.154 146.389C168.358 153.916 158.777 164.324 150.763 158.764L150.376 158.481L133.735 145.768L141.976 165.02L142.154 165.464C145.633 174.745 132.731 181.547 127.088 173.077L115.477 155.647L117.02 176.533C117.781 186.845 102.95 189.32 100.322 179.319L95 159.064L89.6777 179.319C87.0499 189.319 72.219 186.845 72.9805 176.533L74.5225 155.647L62.9121 173.077C57.1795 181.682 43.9559 174.525 48.0244 165.02L56.2637 145.768L39.624 158.481C31.4081 164.759 21.2245 153.697 28.1592 146.027L42.2021 130.494L22.3369 137.116C12.528 140.386 6.4876 126.616 15.5361 121.613L33.8633 111.481L12.9238 111.294C2.58472 111.201 1.34242 96.2171 11.5254 94.4238L32.1484 90.791L12.4043 83.8154C2.6557 80.3705 6.34702 65.7947 16.5605 67.4053L37.2451 70.666L20.8359 57.6572C12.7337 51.2337 20.9585 38.6457 30.0957 43.4854L48.5996 53.2852L37.3047 35.6533C31.7273 26.9471 43.5933 17.7116 50.6641 25.2559L64.9834 40.5352L60.0254 20.1895C57.5771 10.1439 71.7981 5.262 76.0361 14.6934L84.6191 33.793L86.5361 12.9414Z" fill="#8C6138" stroke="#593D22" stroke-width="9"/>
</svg>
