<svg width="196" height="189" viewBox="0 0 196 189" fill="none" xmlns="http://www.w3.org/2000/svg">
<path d="M80.332 17.7432C85.7187 0.388676 110.281 0.388718 115.668 17.7432L126.601 52.9629C127.848 56.982 131.591 59.702 135.799 59.6465L172.674 59.1592L173.098 59.1582C190.96 59.2842 198.317 82.3627 183.593 92.7666L153.475 114.048C150.038 116.476 148.609 120.876 149.962 124.86L161.819 159.78C167.662 176.986 147.79 191.424 133.231 180.551L103.685 158.482C100.313 155.964 95.6869 155.964 92.3154 158.482L62.7686 180.551C48.21 191.424 28.3381 176.986 34.1807 159.78L46.0381 124.86L46.1572 124.486C47.2635 120.729 45.9453 116.671 42.8418 114.281L42.5254 114.048L12.4072 92.7666C-2.43319 82.2808 5.15683 58.9197 23.3262 59.1592L60.2012 59.6465C64.409 59.702 68.1519 56.982 69.3994 52.9629L80.332 17.7432Z" fill="#F87B6E" stroke="#39593B" stroke-width="9"/>
</svg>
